<svg xmlns="http://www.w3.org/2000/svg" width="39" height="39" id="linkedin"><path d="M32.728 38.651H6.531c-3.459 0-6.273-2.808-6.273-6.26V6.26C.258 2.808 3.072 0 6.531 0h26.197C36.186 0 39 2.808 39 6.26v26.132c0 3.452-2.814 6.259-6.272 6.259Zm-19.379-6.698h.008V15.281H8.17v16.672h5.178ZM10.76 13.004a2.998 2.998 0 0 0 3.002-3.002A3.008 3.008 0 0 0 10.76 7a3.003 3.003 0 0 0-3.002 3.002 3.003 3.003 0 0 0 3.002 3.002Zm21.998 18.95v-9.14c0-4.491-.975-7.946-6.215-7.946-2.519 0-4.21 1.38-4.905 2.69h-.07v-2.277h-4.967v16.672h5.178v-8.25c0-2.176.413-4.281 3.11-4.281 2.652 0 2.691 2.488 2.691 4.421v8.11h5.178Z"></path></svg>